<?xml version="1.0" encoding="UTF-8"?>
<svg version="1.1" xmlns="http://www.w3.org/2000/svg" width="581" height="30">
<path d="M0 0 C82.17 0 164.34 0 249 0 C249 1.32 249 2.64 249 4 C166.83 4 84.66 4 0 4 C0 2.68 0 1.36 0 0 Z " fill="#242424" transform="translate(332,12)"/>
<path d="M0 0 C81.84 0 163.68 0 248 0 C248 1.32 248 2.64 248 4 C166.16 4 84.32 4 0 4 C0 2.68 0 1.36 0 0 Z " fill="#242424" transform="translate(0,12)"/>
<path d="M0 0 C5.31414421 0.06842246 10.07577905 0.25912114 14.3125 3.8125 C15.85741433 7.26583791 16.06611601 10.5136728 15.375 14.1875 C13.375 17.1875 13.375 17.1875 11.375 19.1875 C11.7359375 19.81398438 12.096875 20.44046875 12.46875 21.0859375 C13.16484375 22.31183594 13.16484375 22.31183594 13.875 23.5625 C14.3390625 24.37460937 14.803125 25.18671875 15.28125 26.0234375 C16.375 28.1875 16.375 28.1875 16.375 30.1875 C14.395 30.1875 12.415 30.1875 10.375 30.1875 C9.53651196 28.73212432 8.70436066 27.27309627 7.875 25.8125 C7.4109375 25.00039063 6.946875 24.18828125 6.46875 23.3515625 C5.375 21.1875 5.375 21.1875 5.375 19.1875 C3.395 19.1875 1.415 19.1875 -0.625 19.1875 C-0.625 22.8175 -0.625 26.4475 -0.625 30.1875 C-2.275 30.1875 -3.925 30.1875 -5.625 30.1875 C-5.64965746 26.0757744 -5.66783959 21.96407722 -5.67993164 17.85229492 C-5.6849708 16.45254772 -5.69180216 15.0528058 -5.70043945 13.65307617 C-5.7125232 11.64504223 -5.71769807 9.63697043 -5.72265625 7.62890625 C-5.72789307 6.41920166 -5.73312988 5.20949707 -5.73852539 3.96313477 C-5.55453743 -0.53527186 -4.0722271 0.030757 0 0 Z M-0.625 5.1875 C-0.625 8.4875 -0.625 11.7875 -0.625 15.1875 C4.34051325 15.54356813 4.34051325 15.54356813 8.8125 13.6875 C9.328125 13.1925 9.84375 12.6975 10.375 12.1875 C10.03272428 9.21684491 10.03272428 9.21684491 9.375 6.1875 C7.08794169 5.04397084 5.78235238 5.08415561 3.25 5.125 C1.331875 5.1559375 1.331875 5.1559375 -0.625 5.1875 Z " fill="#2C2C2C" transform="translate(300.625,-0.1875)"/>
<path d="M0 0 C3.81422234 2.05381203 7.00010435 4.10546637 9 8 C10.68122312 14.46423773 10.02262655 20.04994774 7 26 C4.68400685 28.96736622 3.14033713 29.81893884 -0.55859375 30.40625 C-5.15511678 30.65572208 -8.85454971 30.69992104 -12.5625 27.75 C-16.92477567 22.82845821 -17.45081266 19.23648015 -17.3125 12.76171875 C-16.82803287 8.48024049 -15.68540192 6.39208663 -13 3 C-8.68266618 0.0258367 -5.18923924 -0.6486549 0 0 Z M-11.0859375 9.15234375 C-12.80164499 12.62041915 -12.48678535 15.1665654 -12 19 C-10.57625614 22.63845652 -9.59644278 23.68881246 -6.125 25.5 C-2.99126948 26.28797845 -2.99126948 26.28797845 -0.25 24.8125 C2.36504695 22.7059344 3.82821654 21.06686571 4.37109375 17.6953125 C4.48872286 13.14237418 4.49777473 10.73202166 1.875 6.875 C-0.87205282 4.84757115 -0.87205282 4.84757115 -4 4.3125 C-7.41062591 5.09410177 -9.01508245 6.32662864 -11.0859375 9.15234375 Z " fill="#2B2B2B" transform="translate(281,0)"/>
</svg>
